<?xml version="1.0" encoding="UTF-8"?>
<svg width="1600" height="900" viewBox="0 0 1600 900" xmlns="http://www.w3.org/2000/svg">
    <defs>
        <linearGradient id="bg" x1="0" y1="0" x2="1" y2="1">
            <stop offset="0%" stop-color="#0f172a"/>
            <stop offset="50%" stop-color="#111827"/>
            <stop offset="100%" stop-color="#1f2937"/>
        </linearGradient>
        <linearGradient id="accent" x1="0" y1="0" x2="1" y2="1">
            <stop offset="0%" stop-color="#ef4444"/>
            <stop offset="100%" stop-color="#f59e0b"/>
        </linearGradient>
        <pattern id="grid" width="40" height="40" patternUnits="userSpaceOnUse">
            <path d="M40 0H0V40" fill="none" stroke="#ffffff" stroke-opacity="0.06" stroke-width="1"/>
        </pattern>
        <filter id="glow" x="-50%" y="-50%" width="200%" height="200%">
            <feGaussianBlur stdDeviation="8" result="b"/>
            <feMerge><feMergeNode in="b"/><feMergeNode in="SourceGraphic"/></feMerge>
        </filter>
        <filter id="shadow" x="-20%" y="-20%" width="140%" height="160%">
            <feOffset dy="18" in="SourceAlpha" result="off"/>
            <feGaussianBlur in="off" stdDeviation="22" result="bl"/>
            <feColorMatrix in="bl" type="matrix"
                           values="0 0 0 0 0
                0 0 0 0 0
                0 0 0 0 0
                0 0 0 0.35 0" result="sh"/>
            <feMerge><feMergeNode in="sh"/><feMergeNode in="SourceGraphic"/></feMerge>
        </filter>
        <linearGradient id="glass" x1="0" y1="0" x2="0" y2="1">
            <stop offset="0%" stop-color="#ffffff" stop-opacity="0.18"/>
            <stop offset="100%" stop-color="#ffffff" stop-opacity="0.08"/>
        </linearGradient>
        <symbol id="angular" viewBox="0 0 256 272">
            <path fill="#DD0031" d="M127.9 0l127.9 46.4-20.5 152.7-107.4 72.9L20.6 199.1 0 46.4 127.9 0z"/>
            <path fill="#C3002F" d="M128 0v272l107.4-72.8L255.8 46.4 128 0z"/>
            <path fill="#FFFFFF" d="M128 34.1l64.5 177.5h-23.9l-13-36.6h-55.2l-13 36.6H63.7L128 34.1zm0 49.2l-21.2 60.2h42.4L128 83.3z"/>
        </symbol>
    </defs>

    <!-- Background -->
    <rect width="1600" height="900" fill="url(#bg)"/>
    <rect width="1600" height="900" fill="url(#grid)"/>

    <!-- Abstract accents -->
    <g opacity="0.25" filter="url(#glow)">
        <circle cx="1320" cy="140" r="180" fill="url(#accent)"/>
        <circle cx="220" cy="720" r="220" fill="url(#accent)"/>
    </g>

    <!-- Title card -->
    <g filter="url(#shadow)">
        <rect x="140" y="180" rx="28" ry="28" width="900" height="500" fill="url(#glass)" stroke="#ffffff" stroke-opacity="0.1"/>
        <rect x="140" y="180" rx="28" ry="28" width="900" height="500" fill="#ffffff" opacity="0.02"/>
    </g>

    <!-- Angular watermark -->
    <g transform="translate(1030,240) scale(1.2)" opacity="0.12">
        <use href="#angular"/>
    </g>

    <!-- Text content -->
    <g fill="#E5E7EB" font-family="Inter, system-ui, -apple-system, Segoe UI, Roboto, Ubuntu, Cantarell, 'Helvetica Neue', Arial">
        <!-- Title -->
        <text x="180" y="300" font-size="52" font-weight="700" fill="#F9FAFB">Workshop Factory</text>

        <!-- Subtitle (wrapped) -->
        <text x="180" y="356" font-size="34" font-weight="700" fill="url(#accent)">
            <tspan x="180" dy="0">Angular Component Library</tspan>
            <tspan x="180" dy="40">Bootcamp</tspan>
        </text>

        <!-- Description (wrapped) -->
        <text x="180" y="420" font-size="19" opacity="0.85">
            <tspan x="180" dy="0">Construire une base de composants typés, factoriser les formulaires</tspan>
            <tspan x="180" dy="28">et poser des conventions solides.</tspan>
        </text>

        <!-- Bullets (wrapped to stay inside 900px card width) -->
        <g font-size="18">
            <text x="180" y="472" opacity="0.95">
                <tspan x="180" dy="0">✔ Objectifs : bibliothèque Angular typée, design system,</tspan>
                <tspan x="180" dy="26">tests ciblés</tspan>
            </text>
            <text x="180" y="520" opacity="0.85">
                <tspan x="180" dy="0">✔ Livrables : starter kit, guide de naming,</tspan>
                <tspan x="180" dy="26">checklist CI</tspan>
            </text>
            <text x="180" y="568" opacity="0.85">
                <tspan x="180" dy="0">✔ Public : équipe frontend, tech lead —</tspan>
                <tspan x="180" dy="26">Durée : ½ journée</tspan>
            </text>
        </g>

        <!-- Footer tag -->
        <rect x="180" y="626" rx="14" ry="14" width="420" height="44" fill="#0B1220" opacity="0.7" stroke="#ffffff" stroke-opacity="0.08"/>
        <text x="200" y="655" font-size="16" opacity="0.95">frédéric tischler • angular • typescript</text>
    </g>
</svg>
